<svg width="15" height="11" viewBox="0 0 15 11" fill="none" xmlns="http://www.w3.org/2000/svg">
<path d="M7.50427 10.4668H7.49011C7.44619 10.4668 3.0524 10.4583 1.94386 10.1573C1.33428 9.99306 0.858229 9.51674 0.694357 8.90707C0.495016 7.7825 0.398756 6.64207 0.406773 5.49999C0.401623 4.35604 0.500489 3.21399 0.702148 2.08795C0.870524 1.47773 1.34449 0.999204 1.95306 0.82499C3.03115 0.541656 7.30382 0.541656 7.48515 0.541656H7.50002C7.54465 0.541656 11.9498 0.550156 13.047 0.851198C13.6553 1.01625 14.1304 1.4916 14.2951 2.09999C14.5008 3.22875 14.5973 4.37469 14.5834 5.52195C14.5883 6.66451 14.4892 7.80515 14.2873 8.92974C14.1213 9.53865 13.6449 10.0139 13.0356 10.1785C11.959 10.464 7.68561 10.4668 7.50427 10.4668ZM6.08761 3.37853L6.08407 7.62853L9.7759 5.50353L6.08761 3.37853Z" fill="#514D4D"/>
</svg>
