<svg width="15" height="16" viewBox="0 0 15 16" fill="none" xmlns="http://www.w3.org/2000/svg">
<path d="M7.50122 15.5342C5.55372 15.5342 5.32414 15.5233 4.56414 15.4883C3.97147 15.4678 3.38648 15.341 2.83435 15.1133C1.87905 14.722 1.12367 13.9265 0.752262 12.9208C0.544296 12.3375 0.432126 11.7212 0.420554 11.0983C0.376221 10.3 0.376221 10.0383 0.376221 8.00415C0.376221 5.94832 0.386512 5.70832 0.420554 4.91248C0.43238 4.29042 0.544546 3.67499 0.752262 3.09248C1.12326 2.08543 1.87987 1.28929 2.83672 0.89915C3.38981 0.679319 3.97462 0.560937 4.56572 0.54915C5.32176 0.50415 5.57034 0.50415 7.50122 0.50415C9.46455 0.50415 9.69018 0.514984 10.4383 0.54915C11.0309 0.561039 11.6173 0.679408 12.1721 0.89915C13.1286 1.28974 13.8851 2.08571 14.2565 3.09248C14.468 3.68348 14.5807 4.30853 14.5898 4.93998C14.6341 5.73832 14.6341 5.99915 14.6341 8.03248C14.6341 10.0658 14.623 10.3325 14.5898 11.1217C14.578 11.7452 14.4656 12.362 14.2573 12.9458C13.8849 13.9522 13.1284 14.748 12.1721 15.1392C11.6181 15.3576 11.0329 15.4757 10.4415 15.4883C9.68543 15.5342 9.43764 15.5342 7.50122 15.5342ZM7.4743 1.82332C5.53789 1.82332 5.3368 1.83332 4.58076 1.86915C4.1295 1.87544 3.6826 1.9631 3.25947 2.12832C2.63465 2.37999 2.14023 2.89831 1.8986 3.55498C1.74043 4.00523 1.65714 4.4808 1.65239 4.96082C1.61043 5.76832 1.61043 5.97998 1.61043 8.00415C1.61043 10.0042 1.61755 10.2467 1.65239 11.0492C1.65947 11.5243 1.74271 11.9948 1.8986 12.4408C2.14059 13.0971 2.63492 13.615 3.25947 13.8667C3.68231 14.033 4.12939 14.1207 4.58076 14.1258C5.3471 14.1725 5.54897 14.1725 7.4743 14.1725C9.41626 14.1725 9.61734 14.1625 10.3671 14.1258C10.8186 14.12 11.2659 14.0324 11.6891 13.8667C12.3102 13.6128 12.8014 13.0961 13.0429 12.4425C13.2007 11.9919 13.284 11.5161 13.2891 11.0358H13.2978C13.3318 10.2392 13.3318 10.0267 13.3318 7.99082C13.3318 5.95498 13.3231 5.74082 13.2891 4.94498C13.282 4.47036 13.1988 4.00041 13.0429 3.55498C12.8019 2.90046 12.3106 2.38273 11.6891 2.12832C11.266 1.96227 10.8187 1.87458 10.3671 1.86915C9.60151 1.82332 9.40122 1.82332 7.4743 1.82332ZM7.50122 11.8533C6.02079 11.8543 4.68559 10.9164 4.11832 9.47703C3.55105 8.03763 3.86344 6.38026 4.9098 5.27787C5.95617 4.17548 7.5304 3.84521 8.89832 4.44109C10.2662 5.03698 11.1584 6.44164 11.1587 7.99998C11.1565 10.1259 9.52081 11.8492 7.50122 11.8533ZM7.50122 5.49832C6.18954 5.49832 5.12622 6.61761 5.12622 7.99832C5.12622 9.37903 6.18954 10.4983 7.50122 10.4983C8.8129 10.4983 9.87622 9.37903 9.87622 7.99832C9.87317 6.61894 8.81163 5.50152 7.50122 5.49832ZM11.3012 4.90415C10.8305 4.90231 10.4501 4.49964 10.451 4.00416C10.4518 3.50867 10.8337 3.10749 11.3044 3.10749C11.7751 3.10749 12.1569 3.50867 12.1578 4.00415C12.158 4.2432 12.0678 4.4725 11.9071 4.64138C11.7463 4.81026 11.5283 4.90481 11.3012 4.90415Z" fill="white"/>
</svg>
