<svg width="16" height="13" viewBox="0 0 16 13" fill="none" xmlns="http://www.w3.org/2000/svg">
<path d="M13.7452 2.73734C14.3801 2.35773 14.8553 1.76 15.0818 1.05575C14.4851 1.40978 13.8323 1.65916 13.1516 1.79313C12.2078 0.794751 10.7124 0.551791 9.50112 1.20001C8.28979 1.84823 7.66236 3.22714 7.96942 4.56625C5.52539 4.44355 3.24835 3.28907 1.70492 1.39009C0.899429 2.77942 1.31105 4.55547 2.64558 5.44883C2.163 5.43332 1.69112 5.30266 1.26929 5.06775C1.26929 5.0805 1.26929 5.09325 1.26929 5.106C1.26957 6.55324 2.28956 7.79985 3.70808 8.08667C3.26046 8.20845 2.79094 8.22638 2.33533 8.13909C2.73427 9.37674 3.87493 10.2246 5.17504 10.2499C4.09826 11.0951 2.76846 11.5534 1.39963 11.5511C1.157 11.5515 0.914566 11.5375 0.673584 11.5093C2.06361 12.4026 3.68143 12.8767 5.33371 12.875C7.63243 12.8908 9.84156 11.9846 11.467 10.359C13.0924 8.73347 13.9984 6.52426 13.9825 4.22554C13.9825 4.09379 13.9794 3.96275 13.9732 3.83242C14.5686 3.40218 15.0824 2.86919 15.4905 2.2585C14.9359 2.50434 14.3476 2.66574 13.7452 2.73734Z" fill="#514D4D"/>
</svg>
