<svg width="13" height="13" viewBox="0 0 13 13" fill="none" xmlns="http://www.w3.org/2000/svg">
<path d="M7.20833 12.875H4.375V4.375H7.20833V5.79167C7.81228 5.02331 8.72816 4.56524 9.70521 4.54287C11.4623 4.55263 12.8801 5.98248 12.875 7.73958V12.875H10.0417V8.09375C9.92836 7.30228 9.24958 6.71503 8.45004 6.71675C8.10032 6.7278 7.77021 6.88092 7.53589 7.14077C7.30158 7.40062 7.18329 7.74475 7.20833 8.09375V12.875ZM2.95833 12.875H0.125V4.375H2.95833V12.875ZM1.54167 2.95833C0.759263 2.95833 0.125 2.32407 0.125 1.54167C0.125 0.759263 0.759263 0.125 1.54167 0.125C2.32407 0.125 2.95833 0.759263 2.95833 1.54167C2.95833 1.91739 2.80908 2.27772 2.5434 2.5434C2.27772 2.80908 1.91739 2.95833 1.54167 2.95833Z" fill="#514D4D"/>
</svg>
