<svg width="13" height="13" viewBox="0 0 13 13" fill="none" xmlns="http://www.w3.org/2000/svg">
<path d="M11.0188 8.53751L9.43125 8.35626C9.05 8.31251 8.675 8.44376 8.40625 8.71251L7.25625 9.8625C5.4875 8.96251 4.0375 7.51876 3.1375 5.74376L4.29375 4.58751C4.5625 4.31876 4.69375 3.94376 4.65 3.56251L4.46875 1.98751C4.39375 1.35626 3.8625 0.881256 3.225 0.881256H2.14375C1.4375 0.881256 0.850001 1.46876 0.893751 2.17501C1.225 7.51251 5.49375 11.775 10.825 12.1063C11.5313 12.15 12.1187 11.5625 12.1187 10.8563V9.77501C12.125 9.14376 11.65 8.61251 11.0188 8.53751Z" fill="#514D4D"/>
</svg>
